<svg xmlns="http://www.w3.org/2000/svg" width="1200" height="630" viewBox="0 0 1200 630">
  <rect width="1200" height="630" fill="#f4efe3"/>
  <rect x="24" y="24" width="1152" height="582" fill="none" stroke="#b7ac8f" stroke-width="2"/>

  <!-- Thermometer -->
  <g transform="translate(560,72) scale(2.8)">
    <path d="M16 5a3 3 0 0 0-3 3v9.6a5 5 0 1 0 6 0V8a3 3 0 0 0-3-3z" fill="none" stroke="#7c1d10" stroke-width="2"/>
    <circle cx="16" cy="22" r="3.4" fill="#7c1d10"/>
    <rect x="15" y="12" width="2" height="9" fill="#7c1d10"/>
  </g>

  <text x="600" y="305" text-anchor="middle" font-family="Georgia, 'Times New Roman', serif" font-weight="700" font-size="82" fill="#20201c">Temperatur-Leaderboard</text>
  <text x="600" y="352" text-anchor="middle" font-family="Georgia, 'Times New Roman', serif" font-style="italic" font-size="31" fill="#6b6457">Live-Rangliste, Karte &amp; Rekorde der Messstationen in Deutschland</text>

  <line x1="300" y1="388" x2="900" y2="388" stroke="#b7ac8f" stroke-width="3"/>
  <line x1="300" y1="394" x2="900" y2="394" stroke="#b7ac8f" stroke-width="1.5"/>

  <!-- Temperatur-Skala -->
  <g>
    <rect x="240" y="430" width="120" height="32" fill="#2f4a6b"/>
    <rect x="360" y="430" width="120" height="32" fill="#3a5d6b"/>
    <rect x="480" y="430" width="120" height="32" fill="#4d5238"/>
    <rect x="600" y="430" width="120" height="32" fill="#b0701a"/>
    <rect x="720" y="430" width="120" height="32" fill="#a8381c"/>
    <rect x="840" y="430" width="120" height="32" fill="#7c1d10"/>
    <rect x="240" y="430" width="720" height="32" fill="none" stroke="#b7ac8f" stroke-width="1"/>
    <g font-family="'Courier New', monospace" font-size="22" fill="#6b6457" text-anchor="middle">
      <text x="300" y="492">&lt;5°</text>
      <text x="420" y="492">5°</text>
      <text x="540" y="492">15°</text>
      <text x="660" y="492">25°</text>
      <text x="780" y="492">30°</text>
      <text x="900" y="492">35°+</text>
    </g>
  </g>

  <text x="600" y="565" text-anchor="middle" font-family="'Courier New', monospace" font-size="22" fill="#6b6457">Datenbasis: Deutscher Wetterdienst (DWD) · eigene Aufbereitung</text>
</svg>
